<mxfile host="app.diagrams.net" agent="Mozilla/5.0 (Windows NT 10.0; Win64; x64) AppleWebKit/537.36 (KHTML, like Gecko) Chrome/138.0.0.0 Safari/537.36" version="28.0.7">
  <diagram name="Page-1" id="3YkB9aixgJG-QnZ_CYMe">
    <mxGraphModel dx="1042" dy="562" grid="1" gridSize="11" guides="1" tooltips="1" connect="1" arrows="1" fold="1" page="1" pageScale="1" pageWidth="827" pageHeight="1169" math="0" shadow="0">
      <root>
        <mxCell id="0" />
        <mxCell id="1" parent="0" />
        <mxCell id="XVe-mjYbfYneN3jnUFL_-8" value="" style="edgeStyle=orthogonalEdgeStyle;rounded=0;orthogonalLoop=1;jettySize=auto;html=1;" edge="1" parent="1" source="XVe-mjYbfYneN3jnUFL_-1" target="XVe-mjYbfYneN3jnUFL_-2">
          <mxGeometry relative="1" as="geometry" />
        </mxCell>
        <mxCell id="XVe-mjYbfYneN3jnUFL_-1" value="&lt;font style=&quot;font-size: 20px;&quot;&gt;Plan&lt;/font&gt;" style="ellipse;whiteSpace=wrap;html=1;aspect=fixed;" vertex="1" parent="1">
          <mxGeometry x="350" y="100" width="150" height="150" as="geometry" />
        </mxCell>
        <mxCell id="XVe-mjYbfYneN3jnUFL_-7" value="" style="edgeStyle=orthogonalEdgeStyle;rounded=0;orthogonalLoop=1;jettySize=auto;html=1;" edge="1" parent="1" source="XVe-mjYbfYneN3jnUFL_-2" target="XVe-mjYbfYneN3jnUFL_-3">
          <mxGeometry relative="1" as="geometry" />
        </mxCell>
        <mxCell id="XVe-mjYbfYneN3jnUFL_-2" value="&lt;font style=&quot;font-size: 20px;&quot;&gt;Develop&lt;/font&gt;" style="ellipse;whiteSpace=wrap;html=1;aspect=fixed;" vertex="1" parent="1">
          <mxGeometry x="350" y="290" width="150" height="150" as="geometry" />
        </mxCell>
        <mxCell id="XVe-mjYbfYneN3jnUFL_-9" value="" style="edgeStyle=orthogonalEdgeStyle;rounded=0;orthogonalLoop=1;jettySize=auto;html=1;" edge="1" parent="1" source="XVe-mjYbfYneN3jnUFL_-3" target="XVe-mjYbfYneN3jnUFL_-4">
          <mxGeometry relative="1" as="geometry" />
        </mxCell>
        <mxCell id="XVe-mjYbfYneN3jnUFL_-3" value="&lt;font style=&quot;font-size: 20px;&quot;&gt;Build&lt;/font&gt;" style="ellipse;whiteSpace=wrap;html=1;aspect=fixed;" vertex="1" parent="1">
          <mxGeometry x="350" y="500" width="150" height="150" as="geometry" />
        </mxCell>
        <mxCell id="XVe-mjYbfYneN3jnUFL_-10" value="" style="edgeStyle=orthogonalEdgeStyle;rounded=0;orthogonalLoop=1;jettySize=auto;html=1;" edge="1" parent="1" source="XVe-mjYbfYneN3jnUFL_-4" target="XVe-mjYbfYneN3jnUFL_-6">
          <mxGeometry relative="1" as="geometry" />
        </mxCell>
        <mxCell id="XVe-mjYbfYneN3jnUFL_-4" value="&lt;font style=&quot;font-size: 20px;&quot;&gt;Test&lt;/font&gt;" style="ellipse;whiteSpace=wrap;html=1;aspect=fixed;" vertex="1" parent="1">
          <mxGeometry x="345" y="720" width="160" height="160" as="geometry" />
        </mxCell>
        <mxCell id="XVe-mjYbfYneN3jnUFL_-12" value="" style="edgeStyle=orthogonalEdgeStyle;rounded=0;orthogonalLoop=1;jettySize=auto;html=1;" edge="1" parent="1" source="XVe-mjYbfYneN3jnUFL_-6" target="XVe-mjYbfYneN3jnUFL_-11">
          <mxGeometry relative="1" as="geometry" />
        </mxCell>
        <mxCell id="XVe-mjYbfYneN3jnUFL_-6" value="&lt;font style=&quot;font-size: 20px;&quot;&gt;Release&lt;/font&gt;" style="ellipse;whiteSpace=wrap;html=1;aspect=fixed;" vertex="1" parent="1">
          <mxGeometry x="345" y="940" width="160" height="160" as="geometry" />
        </mxCell>
        <mxCell id="XVe-mjYbfYneN3jnUFL_-14" value="" style="edgeStyle=orthogonalEdgeStyle;rounded=0;orthogonalLoop=1;jettySize=auto;html=1;" edge="1" parent="1" source="XVe-mjYbfYneN3jnUFL_-11" target="XVe-mjYbfYneN3jnUFL_-13">
          <mxGeometry relative="1" as="geometry" />
        </mxCell>
        <mxCell id="XVe-mjYbfYneN3jnUFL_-11" value="&lt;b&gt;&lt;font style=&quot;font-size: 20px;&quot;&gt;Deploy&lt;/font&gt;&lt;/b&gt;" style="ellipse;whiteSpace=wrap;html=1;aspect=fixed;" vertex="1" parent="1">
          <mxGeometry x="345" y="1180" width="160" height="160" as="geometry" />
        </mxCell>
        <mxCell id="XVe-mjYbfYneN3jnUFL_-16" value="" style="edgeStyle=orthogonalEdgeStyle;rounded=0;orthogonalLoop=1;jettySize=auto;html=1;" edge="1" parent="1" source="XVe-mjYbfYneN3jnUFL_-13" target="XVe-mjYbfYneN3jnUFL_-15">
          <mxGeometry relative="1" as="geometry" />
        </mxCell>
        <mxCell id="XVe-mjYbfYneN3jnUFL_-13" value="&lt;span style=&quot;font-size: 20px;&quot;&gt;&lt;b&gt;Operate&lt;/b&gt;&lt;/span&gt;" style="ellipse;whiteSpace=wrap;html=1;aspect=fixed;" vertex="1" parent="1">
          <mxGeometry x="345" y="1420" width="160" height="160" as="geometry" />
        </mxCell>
        <mxCell id="XVe-mjYbfYneN3jnUFL_-15" value="&lt;font style=&quot;font-size: 20px;&quot;&gt;&lt;b&gt;Monitor&lt;/b&gt;&lt;/font&gt;" style="ellipse;whiteSpace=wrap;html=1;aspect=fixed;" vertex="1" parent="1">
          <mxGeometry x="345" y="1660" width="160" height="160" as="geometry" />
        </mxCell>
      </root>
    </mxGraphModel>
  </diagram>
</mxfile>
